name rise32.9588peak41.5061fall63.4684.mot
datacolumns 19
datarows 23
range 21.65824700000000 21.69491900000000
endheader
time	ground_force1_vx	ground_force1_vy	ground_force1_vz	ground_force1_px	ground_force1_py	ground_force1_pz	ground_force2_vx	ground_force2_vy	ground_force2_vz	ground_force2_px	ground_force2_py	ground_force2_pz	ground_torque1_x	ground_torque1_y	ground_torque1_z	ground_torque2_x	ground_torque2_y	ground_torque2_z	
21.65824700000000	-8.38476900000000	41.96007500000000	-11.61155500000000	0.26930100000000	0.00000000000000	0.06843000000000	-48.87372100000000	787.10257100000001	-48.36787300000000	0.07330100000000	0.00000000000000	-0.09175700000000	0.00000000000000	-6.81942200000000	0.00000000000000	0.00000000000000	-14.05920500000000	0.00000000000000	
21.65992300000000	-9.24504500000000	49.12668700000000	-13.10294900000000	0.27435400000000	0.00000000000000	0.06955500000000	-49.46494800000000	784.63012900000001	-48.02665800000000	0.07252800000000	0.00000000000000	-0.09165800000000	0.00000000000000	-7.76641000000000	0.00000000000000	0.00000000000000	-14.04302500000000	0.00000000000000	
21.66158300000000	-9.95919400000000	56.37026800000000	-14.47471200000000	0.27887800000000	0.00000000000000	0.07058800000000	-50.07470800000000	782.04725399999995	-47.67071000000000	0.07175500000000	0.00000000000000	-0.09155700000000	0.00000000000000	-8.65383000000000	0.00000000000000	0.00000000000000	-14.03110400000000	0.00000000000000	
21.66325000000000	-10.50414300000000	63.59676700000000	-15.69623600000000	0.28295500000000	0.00000000000000	0.07154000000000	-50.70296900000000	779.35104400000000	-47.29988300000000	0.07098100000000	0.00000000000000	-0.09145300000000	0.00000000000000	-9.46185100000000	0.00000000000000	0.00000000000000	-14.02349400000000	0.00000000000000	
21.66492000000000	-10.86570200000000	70.73554900000001	-16.74690200000000	0.28665200000000	0.00000000000000	0.07242500000000	-51.34958300000000	776.53849800000000	-46.91403400000000	0.07020800000000	0.00000000000000	-0.09134600000000	0.00000000000000	-10.17659800000000	0.00000000000000	0.00000000000000	-14.02022200000000	0.00000000000000	
21.66658200000000	-11.03848300000000	77.74153600000000	-17.61627000000000	0.29002600000000	0.00000000000000	0.07324900000000	-52.01427900000000	773.60652800000003	-46.51302300000000	0.06943500000000	0.00000000000000	-0.09123600000000	0.00000000000000	-10.79038200000000	0.00000000000000	0.00000000000000	-14.02129000000000	0.00000000000000	
21.66825700000000	-11.02512900000000	84.59487700000000	-18.30339200000000	0.29312000000000	0.00000000000000	0.07402100000000	-52.69666200000000	770.55196699999999	-46.09671500000000	0.06866200000000	0.00000000000000	-0.09112400000000	0.00000000000000	-11.30138100000000	0.00000000000000	0.00000000000000	-14.02667500000000	0.00000000000000	
21.66992600000000	-10.83500700000000	91.29860800000000	-18.81548000000000	0.29597100000000	0.00000000000000	0.07474700000000	-53.39620600000000	767.37157999999999	-45.66498200000000	0.06789100000000	0.00000000000000	-0.09100900000000	0.00000000000000	-11.71289700000000	0.00000000000000	0.00000000000000	-14.03632700000000	0.00000000000000	
21.67158700000000	-10.48258300000000	97.87482300000001	-19.16612900000000	0.29861100000000	0.00000000000000	0.07543200000000	-54.11225700000000	764.06207500000005	-45.21770700000000	0.06712200000000	0.00000000000000	-0.09089100000000	0.00000000000000	-12.03231600000000	0.00000000000000	0.00000000000000	-14.05017100000000	0.00000000000000	
21.67325600000000	-9.98566300000000	104.35994700000001	-19.37332200000000	0.30106500000000	0.00000000000000	0.07608100000000	-54.84402400000000	760.62012000000004	-44.75477900000000	0.06635400000000	0.00000000000000	-0.09077000000000	0.00000000000000	-12.26991200000000	0.00000000000000	0.00000000000000	-14.06810500000000	0.00000000000000	
21.67491600000000	-9.36366900000000	110.79965100000000	-19.45743400000000	0.30335600000000	0.00000000000000	0.07669700000000	-55.59058300000000	757.04234799999995	-44.27610300000000	0.06558800000000	0.00000000000000	-0.09064700000000	0.00000000000000	-12.43762100000000	0.00000000000000	0.00000000000000	-14.08999600000000	0.00000000000000	
21.67658400000000	-8.63607900000000	117.24388600000000	-19.43938400000000	0.30550000000000	0.00000000000000	0.07728300000000	-56.35087400000000	753.32538000000000	-43.78159600000000	0.06482500000000	0.00000000000000	-0.09052100000000	0.00000000000000	-12.54789600000000	0.00000000000000	0.00000000000000	-14.11568900000000	0.00000000000000	
21.67825500000000	-7.82113700000000	123.74242099999999	-19.33905500000000	0.30751500000000	0.00000000000000	0.07784200000000	-57.12370100000000	749.46583299999998	-43.27119400000000	0.06406500000000	0.00000000000000	-0.09039200000000	0.00000000000000	-12.61270900000000	0.00000000000000	0.00000000000000	-14.14499900000000	0.00000000000000	
21.67992300000000	-6.93487900000000	130.34112900000000	-19.17408100000000	0.30941400000000	0.00000000000000	0.07837600000000	-57.90773200000000	745.46034099999997	-42.74485000000000	0.06330900000000	0.00000000000000	-0.09026000000000	0.00000000000000	-12.64277500000000	0.00000000000000	0.00000000000000	-14.17771400000000	0.00000000000000	
21.68158700000000	-5.99050000000000	137.07919999999999	-18.95900000000000	0.31120600000000	0.00000000000000	0.07888800000000	-58.70150200000000	741.30556700000000	-42.20253600000000	0.06255600000000	0.00000000000000	-0.09012600000000	0.00000000000000	-12.64699400000000	0.00000000000000	0.00000000000000	-14.21359700000000	0.00000000000000	
21.68325000000000	-4.99804900000000	143.98731000000001	-18.70480400000000	0.31290300000000	0.00000000000000	0.07937900000000	-59.50341100000000	736.99822300000005	-41.64425100000000	0.06180800000000	0.00000000000000	-0.08998900000000	0.00000000000000	-12.63213800000000	0.00000000000000	0.00000000000000	-14.25238100000000	0.00000000000000	
21.68492000000000	-3.96441900000000	151.08672899999999	-18.41882900000000	0.31451300000000	0.00000000000000	0.07985200000000	-60.31173100000000	732.53508999999997	-41.07001600000000	0.06106400000000	0.00000000000000	-0.08984900000000	0.00000000000000	-12.60275000000000	0.00000000000000	0.00000000000000	-14.29377700000000	0.00000000000000	
21.68658500000000	-2.89356900000000	158.38925100000000	-18.10493900000000	0.31604200000000	0.00000000000000	0.08030600000000	-61.12460700000000	727.91303300000004	-40.47987900000000	0.06032600000000	0.00000000000000	-0.08970700000000	0.00000000000000	-12.56123300000000	0.00000000000000	0.00000000000000	-14.33746900000000	0.00000000000000	
21.68825300000000	-1.78694000000000	165.89781300000001	-17.76393800000000	0.31749700000000	0.00000000000000	0.08074400000000	-61.94006100000000	723.12902099999997	-39.87391800000000	0.05959300000000	0.00000000000000	-0.08956100000000	0.00000000000000	-12.50808300000000	0.00000000000000	0.00000000000000	-14.38311800000000	0.00000000000000	
21.68992200000000	-0.64397300000000	173.60762299999999	-17.39413700000000	0.31888200000000	0.00000000000000	0.08116600000000	-62.75599700000000	718.18015300000002	-39.25224100000000	0.05886500000000	0.00000000000000	-0.08941300000000	0.00000000000000	-12.44221900000000	0.00000000000000	0.00000000000000	-14.43035900000000	0.00000000000000	
21.69158600000000	0.53730600000000	181.50761399999999	-16.99200400000000	0.32020200000000	0.00000000000000	0.08157300000000	-63.57020600000000	713.06367000000000	-38.61499100000000	0.05814400000000	0.00000000000000	-0.08926300000000	0.00000000000000	-12.36137900000000	0.00000000000000	0.00000000000000	-14.47880800000000	0.00000000000000	
21.69325600000000	1.75970600000000	189.58207100000001	-16.55283200000000	0.32146100000000	0.00000000000000	0.08196800000000	-64.38037300000001	707.77698599999997	-37.96234200000000	0.05743000000000	0.00000000000000	-0.08910900000000	0.00000000000000	-12.26253000000000	0.00000000000000	0.00000000000000	-14.52805800000000	0.00000000000000	
21.69491900000000	3.02633000000000	197.81226400000000	-16.07137800000000	0.32266200000000	0.00000000000000	0.08234900000000	-65.18408300000000	702.31769999999995	-37.29450400000000	0.05672200000000	0.00000000000000	-0.08895300000000	0.00000000000000	-12.14225900000000	0.00000000000000	0.00000000000000	-14.57768100000000	0.00000000000000	
